<?xml version="1.0" encoding="UTF-8" standalone="no"?>
<!-- Created with Inkscape (http://www.inkscape.org/) -->

<svg
   width="165mm"
   height="60mm"
   viewBox="0 0 165 60"
   version="1.1"
   id="svg1"
   inkscape:version="1.3.2 (1:1.3.2+202311252150+091e20ef0f)"
   sodipodi:docname="Silikon14_logo_white.svg"
   inkscape:export-filename="Silikon14_logo_white.png"
   inkscape:export-xdpi="423.33334"
   inkscape:export-ydpi="423.33334"
   xmlns:inkscape="http://www.inkscape.org/namespaces/inkscape"
   xmlns:sodipodi="http://sodipodi.sourceforge.net/DTD/sodipodi-0.dtd"
   xmlns="http://www.w3.org/2000/svg"
   xmlns:svg="http://www.w3.org/2000/svg">
  <sodipodi:namedview
     id="namedview1"
     pagecolor="#ffffff"
     bordercolor="#666666"
     borderopacity="1.0"
     inkscape:showpageshadow="2"
     inkscape:pageopacity="0.0"
     inkscape:pagecheckerboard="0"
     inkscape:deskcolor="#d1d1d1"
     inkscape:document-units="mm"
     inkscape:zoom="0.4053381"
     inkscape:cx="397.19927"
     inkscape:cy="516.85247"
     inkscape:window-width="1366"
     inkscape:window-height="682"
     inkscape:window-x="0"
     inkscape:window-y="24"
     inkscape:window-maximized="1"
     inkscape:current-layer="layer1" />
  <defs
     id="defs1">
    <rect
       x="76.891121"
       y="234.53532"
       width="629.35144"
       height="275.54474"
       id="rect1" />
    <rect
       x="76.891121"
       y="234.53532"
       width="629.35144"
       height="275.54474"
       id="rect1-7" />
  </defs>
  <g
     inkscape:label="Layer 1"
     inkscape:groupmode="layer"
     id="layer1">
    <g
       id="g2"
       transform="translate(-13.750493,-57.528152)">
      <path
         style="font-size:40px;line-height:1.25;font-family:TimeBurner;-inkscape-font-specification:TimeBurner;white-space:pre"
         d="m 93.730625,240.64578 v 2.12 h -9.08 q -1.2,0 -2.24,0.48 -1.04,0.44 -1.84,1.24 -0.76,0.76 -1.2,1.8 -0.44,1.04 -0.44,2.24 0,1.2 0.44,2.24 0.44,1.04 1.2,1.84 0.8,0.76 1.84,1.2 1.04,0.44 2.24,0.44 h 2.64 q 1.6,0 3.04,0.64 1.44,0.6 2.48,1.68 1.08,1.04 1.68,2.48 0.64,1.44 0.64,3.04 0,1.64 -0.64,3.08 -0.6,1.4 -1.68,2.48 -1.04,1.04 -2.48,1.68 -1.44,0.6 -3.04,0.6 h -9.08 v -2.08 h 9.08 q 1.2,0 2.24,-0.44 1.04,-0.44 1.8,-1.2 0.8,-0.8 1.24,-1.84 0.48,-1.08 0.48,-2.28 0,-1.2 -0.48,-2.24 -0.44,-1.04 -1.24,-1.8 -0.76,-0.8 -1.8,-1.24 -1.04,-0.44 -2.24,-0.44 h -2.64 q -1.64,0 -3.08,-0.6 -1.4,-0.64 -2.48,-1.68 -1.04,-1.08 -1.68,-2.48 -0.6,-1.44 -0.6,-3.08 0,-1.64 0.6,-3.08 0.64,-1.44 1.68,-2.48 1.08,-1.08 2.48,-1.68 1.44,-0.64 3.08,-0.64 z m 4.999927,9.28 h 2.079998 v 20 h -2.079998 z m 0,-10 h 2.079998 v 3.4 h -2.079998 z m 5.959958,0 h 2.08 v 25.2 q 0,1.32 0.92,2.24 0.92,0.92 2.24,0.92 v 2.08 q -1.08,0 -2.04,-0.4 -0.96,-0.4 -1.68,-1.12 -0.68,-0.72 -1.12,-1.68 -0.4,-0.96 -0.4,-2.04 z m 8.19997,10 h 2.08 v 20 h -2.08 z m 0,-10 h 2.08 v 3.4 h -2.08 z m 5.99996,0 h 2.08 v 20 l 10,-10 h 2.96 l -10,10 10,10 h -2.96 l -10,-10 v 10 h -2.08 z m 26.5599,9.52 q 2.16,0 4.04,0.84 1.92,0.8 3.32,2.24 1.44,1.4 2.24,3.32 0.84,1.92 0.84,4.08 0,2.16 -0.84,4.08 -0.8,1.88 -2.24,3.32 -1.4,1.4 -3.32,2.24 -1.88,0.8 -4.04,0.8 -2.16,0 -4.08,-0.8 -1.88,-0.84 -3.32,-2.24 -1.4,-1.44 -2.24,-3.32 -0.8,-1.92 -0.8,-4.08 0,-2.16 0.8,-4.08 0.84,-1.92 2.24,-3.32 1.44,-1.44 3.32,-2.24 1.92,-0.84 4.08,-0.84 z m 0,2.12 q -1.76,0 -3.28,0.68 -1.52,0.64 -2.64,1.76 -1.12,1.12 -1.8,2.68 -0.64,1.52 -0.64,3.24 0,1.72 0.64,3.24 0.68,1.52 1.8,2.68 1.12,1.12 2.64,1.8 1.52,0.64 3.28,0.64 1.72,0 3.24,-0.64 1.52,-0.68 2.64,-1.8 1.16,-1.16 1.8,-2.68 0.68,-1.52 0.68,-3.24 0,-1.72 -0.68,-3.24 -0.64,-1.56 -1.8,-2.68 -1.12,-1.12 -2.64,-1.76 -1.52,-0.68 -3.24,-0.68 z m 24.03999,-2.12 q 2.16,0 4.04,0.84 1.92,0.8 3.32,2.24 1.44,1.4 2.24,3.32 0.84,1.92 0.84,4.08 v 10 h -2.08 v -10 q 0,-1.72 -0.68,-3.24 -0.64,-1.56 -1.76,-2.68 -1.12,-1.12 -2.68,-1.76 -1.52,-0.68 -3.24,-0.68 -1.72,0 -3.24,0.68 -1.52,0.64 -2.68,1.76 -1.12,1.12 -1.8,2.68 -0.64,1.52 -0.64,3.24 v 10 h -2.08 v -10 q 0,-2.16 0.8,-4.08 0.84,-1.92 2.24,-3.32 1.44,-1.44 3.32,-2.24 1.92,-0.84 4.08,-0.84 z"
         id="text1"
         transform="matrix(0.98268725,0,0,0.98268725,-58.146829,-163.20035)"
         aria-label="Silikon" />
      <g
         id="g4">
        <circle
           style="fill:#bf00ff;fill-opacity:1;stroke:#bf00ff;stroke-width:2;stroke-linecap:round;stroke-linejoin:round;stroke-dasharray:none;stroke-opacity:1"
           id="path1"
           cx="149.16699"
           cy="87.528152"
           r="25" />
      </g>
      <path
         style="font-weight:bold;font-size:40px;line-height:1.25;font-family:TimeBurner;-inkscape-font-specification:'TimeBurner Bold';white-space:pre;fill:#ffffff"
         d="m 83.770625,269.92578 h -3.44 v -30 h -3.52 v -3.44 h 6.96 z m 14.439946,-33.44 h 3.919999 l -9.599999,16.6 h 9.959999 v -16.6 h 3.44 v 16.6 h 3.16 v 3.4 h -3.16 v 13.44 h -3.44 v -13.44 H 86.650571 Z"
         id="text1-3"
         transform="matrix(0.89452751,0,0,0.89452751,66.020125,-138.97138)"
         aria-label="14" />
    </g>
  </g>
</svg>
